<svg width="495" height="102" viewBox="0 0 495 102" fill="none" xmlns="http://www.w3.org/2000/svg">
<circle cx="44.5" cy="44.5" r="43" stroke="#CCCCCC" stroke-width="3"/>
<rect x="33.8924" y="23.1917" width="7.44395" height="53.5964" rx="3.72197" transform="rotate(-30 33.8924 23.1917)" fill="#AB47BC"/>
<rect x="21.889" y="31.3801" width="7.44395" height="53.5964" rx="3.72197" transform="rotate(-30 21.889 31.3801)" fill="#81C784"/>
<circle cx="56.8755" cy="23.1917" r="8.18834" fill="#FFA726"/>
<path d="M103.539 31.9072C103.539 31.6279 103.496 31.3773 103.41 31.1553C103.331 30.9261 103.181 30.7184 102.959 30.5322C102.737 30.3389 102.425 30.1491 102.024 29.9629C101.623 29.7767 101.104 29.5833 100.467 29.3828C99.7578 29.1536 99.0846 28.8958 98.4473 28.6094C97.8171 28.3229 97.2585 27.9899 96.7715 27.6104C96.2917 27.2236 95.9121 26.776 95.6328 26.2676C95.3607 25.7591 95.2246 25.1683 95.2246 24.4951C95.2246 23.8434 95.3678 23.2526 95.6543 22.7227C95.9408 22.1855 96.3418 21.7272 96.8574 21.3477C97.373 20.9609 97.9818 20.6637 98.6836 20.4561C99.3926 20.2484 100.17 20.1445 101.015 20.1445C102.168 20.1445 103.174 20.3522 104.033 20.7676C104.893 21.1829 105.559 21.7523 106.031 22.4756C106.511 23.1989 106.751 24.026 106.751 24.957H103.55C103.55 24.4987 103.453 24.0977 103.26 23.7539C103.074 23.403 102.787 23.1273 102.4 22.9268C102.021 22.7262 101.541 22.626 100.961 22.626C100.402 22.626 99.9368 22.7119 99.5645 22.8838C99.1921 23.0485 98.9128 23.2741 98.7266 23.5605C98.5404 23.8398 98.4473 24.1549 98.4473 24.5059C98.4473 24.7708 98.5117 25.0107 98.6406 25.2256C98.7767 25.4404 98.9772 25.641 99.2422 25.8271C99.5072 26.0133 99.833 26.1888 100.22 26.3535C100.606 26.5182 101.054 26.6794 101.562 26.8369C102.415 27.0947 103.163 27.3848 103.808 27.707C104.459 28.0293 105.004 28.391 105.44 28.792C105.877 29.193 106.207 29.6478 106.429 30.1562C106.651 30.6647 106.762 31.2412 106.762 31.8857C106.762 32.5661 106.629 33.1748 106.364 33.7119C106.099 34.249 105.716 34.7038 105.215 35.0762C104.714 35.4486 104.116 35.7314 103.421 35.9248C102.726 36.1182 101.949 36.2148 101.09 36.2148C100.316 36.2148 99.5537 36.1146 98.8018 35.9141C98.0498 35.7064 97.3659 35.3949 96.75 34.9795C96.1413 34.5641 95.6543 34.0342 95.2891 33.3896C94.9238 32.7451 94.7412 31.9824 94.7412 31.1016H97.9746C97.9746 31.5885 98.0498 32.0003 98.2002 32.3369C98.3506 32.6735 98.5618 32.9456 98.834 33.1533C99.1133 33.361 99.4427 33.5114 99.8223 33.6045C100.209 33.6976 100.632 33.7441 101.09 33.7441C101.648 33.7441 102.107 33.6654 102.465 33.5078C102.83 33.3503 103.099 33.1318 103.271 32.8525C103.45 32.5732 103.539 32.2581 103.539 31.9072ZM119.384 26.7295V29.2432H111.22V26.7295H119.384ZM112.176 20.3594V36H108.953V20.3594H112.176ZM121.683 20.3594V36H118.471V20.3594H121.683ZM131.039 23.0342L126.785 36H123.358L129.17 20.3594H131.351L131.039 23.0342ZM134.573 36L130.309 23.0342L129.965 20.3594H132.167L138.011 36H134.573ZM134.38 30.1777V32.7021H126.119V30.1777H134.38ZM142.694 33.5186L145.81 20.3594H147.55L147.947 22.5508L144.628 36H142.759L142.694 33.5186ZM141.094 20.3594L143.672 33.5186L143.457 36H141.373L137.903 20.3594H141.094ZM150.687 33.4648L153.232 20.3594H156.423L152.964 36H150.88L150.687 33.4648ZM148.527 20.3594L151.664 33.5723L151.578 36H149.709L146.368 22.54L146.798 20.3594H148.527ZM170.903 20.3594V36H167.681L161.396 25.5156V36H158.174V20.3594H161.396L167.691 30.8545V20.3594H170.903ZM189.681 33.4863V36H181.355V33.4863H189.681ZM182.408 20.3594V36H179.186V20.3594H182.408ZM188.596 26.7295V29.1787H181.355V26.7295H188.596ZM189.67 20.3594V22.8838H181.355V20.3594H189.67ZM196.362 36H192.957L192.979 33.4863H196.362C197.207 33.4863 197.92 33.2965 198.5 32.917C199.08 32.5303 199.517 31.9681 199.811 31.2305C200.111 30.4928 200.262 29.6012 200.262 28.5557V27.793C200.262 26.9909 200.176 26.2855 200.004 25.6768C199.839 25.068 199.592 24.556 199.263 24.1406C198.933 23.7253 198.529 23.4137 198.049 23.2061C197.569 22.9912 197.018 22.8838 196.395 22.8838H192.893V20.3594H196.395C197.44 20.3594 198.396 20.5384 199.263 20.8965C200.136 21.2474 200.892 21.7523 201.529 22.4111C202.167 23.07 202.657 23.8577 203.001 24.7744C203.352 25.6839 203.527 26.6973 203.527 27.8145V28.5557C203.527 29.6657 203.352 30.679 203.001 31.5957C202.657 32.5124 202.167 33.3001 201.529 33.959C200.899 34.6107 200.144 35.1156 199.263 35.4736C198.389 35.8245 197.422 36 196.362 36ZM194.783 20.3594V36H191.561V20.3594H194.783ZM207.341 20.3594H210.069L214.087 31.8428L218.104 20.3594H220.833L215.183 36H212.991L207.341 20.3594ZM205.869 20.3594H208.587L209.081 31.5527V36H205.869V20.3594ZM219.587 20.3594H222.315V36H219.093V31.5527L219.587 20.3594ZM237.988 27.8145V28.5557C237.988 29.7445 237.827 30.8115 237.505 31.7568C237.183 32.7021 236.728 33.5078 236.141 34.1738C235.553 34.8327 234.852 35.3376 234.035 35.6885C233.226 36.0394 232.327 36.2148 231.339 36.2148C230.358 36.2148 229.459 36.0394 228.643 35.6885C227.833 35.3376 227.132 34.8327 226.537 34.1738C225.943 33.5078 225.481 32.7021 225.151 31.7568C224.829 30.8115 224.668 29.7445 224.668 28.5557V27.8145C224.668 26.6185 224.829 25.5514 225.151 24.6133C225.474 23.668 225.928 22.8623 226.516 22.1963C227.11 21.5303 227.812 21.0218 228.621 20.6709C229.438 20.32 230.336 20.1445 231.317 20.1445C232.306 20.1445 233.204 20.32 234.014 20.6709C234.83 21.0218 235.532 21.5303 236.119 22.1963C236.714 22.8623 237.172 23.668 237.494 24.6133C237.824 25.5514 237.988 26.6185 237.988 27.8145ZM234.733 28.5557V27.793C234.733 26.9622 234.658 26.2318 234.508 25.6016C234.357 24.9714 234.135 24.4414 233.842 24.0117C233.548 23.582 233.19 23.2598 232.768 23.0449C232.345 22.8229 231.862 22.7119 231.317 22.7119C230.773 22.7119 230.29 22.8229 229.867 23.0449C229.452 23.2598 229.097 23.582 228.804 24.0117C228.517 24.4414 228.299 24.9714 228.148 25.6016C227.998 26.2318 227.923 26.9622 227.923 27.793V28.5557C227.923 29.3792 227.998 30.1097 228.148 30.7471C228.299 31.3773 228.521 31.9108 228.814 32.3477C229.108 32.7773 229.466 33.1032 229.889 33.3252C230.311 33.5472 230.795 33.6582 231.339 33.6582C231.883 33.6582 232.367 33.5472 232.789 33.3252C233.212 33.1032 233.566 32.7773 233.853 32.3477C234.139 31.9108 234.357 31.3773 234.508 30.7471C234.658 30.1097 234.733 29.3792 234.733 28.5557ZM253.038 20.3594V36H249.815L243.531 25.5156V36H240.309V20.3594H243.531L249.826 30.8545V20.3594H253.038ZM263.984 31.9072C263.984 31.6279 263.941 31.3773 263.855 31.1553C263.777 30.9261 263.626 30.7184 263.404 30.5322C263.182 30.3389 262.871 30.1491 262.47 29.9629C262.069 29.7767 261.549 29.5833 260.912 29.3828C260.203 29.1536 259.53 28.8958 258.893 28.6094C258.262 28.3229 257.704 27.9899 257.217 27.6104C256.737 27.2236 256.357 26.776 256.078 26.2676C255.806 25.7591 255.67 25.1683 255.67 24.4951C255.67 23.8434 255.813 23.2526 256.1 22.7227C256.386 22.1855 256.787 21.7272 257.303 21.3477C257.818 20.9609 258.427 20.6637 259.129 20.4561C259.838 20.2484 260.615 20.1445 261.46 20.1445C262.613 20.1445 263.619 20.3522 264.479 20.7676C265.338 21.1829 266.004 21.7523 266.477 22.4756C266.956 23.1989 267.196 24.026 267.196 24.957H263.995C263.995 24.4987 263.898 24.0977 263.705 23.7539C263.519 23.403 263.232 23.1273 262.846 22.9268C262.466 22.7262 261.986 22.626 261.406 22.626C260.848 22.626 260.382 22.7119 260.01 22.8838C259.637 23.0485 259.358 23.2741 259.172 23.5605C258.986 23.8398 258.893 24.1549 258.893 24.5059C258.893 24.7708 258.957 25.0107 259.086 25.2256C259.222 25.4404 259.423 25.641 259.688 25.8271C259.952 26.0133 260.278 26.1888 260.665 26.3535C261.052 26.5182 261.499 26.6794 262.008 26.8369C262.86 27.0947 263.608 27.3848 264.253 27.707C264.905 28.0293 265.449 28.391 265.886 28.792C266.323 29.193 266.652 29.6478 266.874 30.1562C267.096 30.6647 267.207 31.2412 267.207 31.8857C267.207 32.5661 267.075 33.1748 266.81 33.7119C266.545 34.249 266.161 34.7038 265.66 35.0762C265.159 35.4486 264.561 35.7314 263.866 35.9248C263.172 36.1182 262.395 36.2148 261.535 36.2148C260.762 36.2148 259.999 36.1146 259.247 35.9141C258.495 35.7064 257.811 35.3949 257.195 34.9795C256.587 34.5641 256.1 34.0342 255.734 33.3896C255.369 32.7451 255.187 31.9824 255.187 31.1016H258.42C258.42 31.5885 258.495 32.0003 258.646 32.3369C258.796 32.6735 259.007 32.9456 259.279 33.1533C259.559 33.361 259.888 33.5114 260.268 33.6045C260.654 33.6976 261.077 33.7441 261.535 33.7441C262.094 33.7441 262.552 33.6654 262.91 33.5078C263.275 33.3503 263.544 33.1318 263.716 32.8525C263.895 32.5732 263.984 32.2581 263.984 31.9072ZM282.246 27.8145V28.5557C282.246 29.7445 282.085 30.8115 281.763 31.7568C281.44 32.7021 280.986 33.5078 280.398 34.1738C279.811 34.8327 279.109 35.3376 278.293 35.6885C277.484 36.0394 276.585 36.2148 275.597 36.2148C274.616 36.2148 273.717 36.0394 272.9 35.6885C272.091 35.3376 271.389 34.8327 270.795 34.1738C270.201 33.5078 269.739 32.7021 269.409 31.7568C269.087 30.8115 268.926 29.7445 268.926 28.5557V27.8145C268.926 26.6185 269.087 25.5514 269.409 24.6133C269.731 23.668 270.186 22.8623 270.773 22.1963C271.368 21.5303 272.07 21.0218 272.879 20.6709C273.695 20.32 274.594 20.1445 275.575 20.1445C276.563 20.1445 277.462 20.32 278.271 20.6709C279.088 21.0218 279.79 21.5303 280.377 22.1963C280.971 22.8623 281.43 23.668 281.752 24.6133C282.081 25.5514 282.246 26.6185 282.246 27.8145ZM278.991 28.5557V27.793C278.991 26.9622 278.916 26.2318 278.766 25.6016C278.615 24.9714 278.393 24.4414 278.1 24.0117C277.806 23.582 277.448 23.2598 277.025 23.0449C276.603 22.8229 276.119 22.7119 275.575 22.7119C275.031 22.7119 274.548 22.8229 274.125 23.0449C273.71 23.2598 273.355 23.582 273.062 24.0117C272.775 24.4414 272.557 24.9714 272.406 25.6016C272.256 26.2318 272.181 26.9622 272.181 27.793V28.5557C272.181 29.3792 272.256 30.1097 272.406 30.7471C272.557 31.3773 272.779 31.9108 273.072 32.3477C273.366 32.7773 273.724 33.1032 274.146 33.3252C274.569 33.5472 275.052 33.6582 275.597 33.6582C276.141 33.6582 276.624 33.5472 277.047 33.3252C277.469 33.1032 277.824 32.7773 278.11 32.3477C278.397 31.9108 278.615 31.3773 278.766 30.7471C278.916 30.1097 278.991 29.3792 278.991 28.5557ZM297.296 20.3594V36H294.073L287.789 25.5156V36H284.566V20.3594H287.789L294.084 30.8545V20.3594H297.296ZM314.645 30.8115H317.856C317.792 31.8643 317.502 32.7988 316.986 33.6152C316.478 34.4316 315.765 35.069 314.849 35.5273C313.939 35.9857 312.843 36.2148 311.562 36.2148C310.559 36.2148 309.66 36.043 308.865 35.6992C308.07 35.3483 307.39 34.847 306.824 34.1953C306.266 33.5436 305.84 32.7559 305.546 31.832C305.252 30.9082 305.105 29.8734 305.105 28.7275V27.6426C305.105 26.4967 305.256 25.4619 305.557 24.5381C305.865 23.6071 306.301 22.8158 306.867 22.1641C307.44 21.5124 308.124 21.0111 308.919 20.6602C309.714 20.3092 310.602 20.1338 311.583 20.1338C312.886 20.1338 313.986 20.3701 314.881 20.8428C315.783 21.3154 316.481 21.9671 316.976 22.7979C317.477 23.6286 317.778 24.5739 317.878 25.6338H314.655C314.619 25.0036 314.494 24.4701 314.279 24.0332C314.064 23.5892 313.739 23.2562 313.302 23.0342C312.872 22.805 312.299 22.6904 311.583 22.6904C311.046 22.6904 310.577 22.7907 310.176 22.9912C309.775 23.1917 309.438 23.4961 309.166 23.9043C308.894 24.3125 308.69 24.8281 308.554 25.4512C308.425 26.0671 308.36 26.7904 308.36 27.6211V28.7275C308.36 29.5368 308.421 30.2493 308.543 30.8652C308.665 31.474 308.851 31.9896 309.102 32.4121C309.359 32.8275 309.689 33.1426 310.09 33.3574C310.498 33.5651 310.989 33.6689 311.562 33.6689C312.235 33.6689 312.79 33.5615 313.227 33.3467C313.663 33.1318 313.996 32.8132 314.226 32.3906C314.462 31.9681 314.602 31.4417 314.645 30.8115ZM330.403 26.7295V29.2432H322.239V26.7295H330.403ZM323.195 20.3594V36H319.973V20.3594H323.195ZM332.702 20.3594V36H329.49V20.3594H332.702ZM342.059 23.0342L337.805 36H334.378L340.189 20.3594H342.37L342.059 23.0342ZM345.593 36L341.328 23.0342L340.984 20.3594H343.187L349.03 36H345.593ZM345.399 30.1777V32.7021H337.139V30.1777H345.399ZM350.48 20.3594H356.313C357.509 20.3594 358.537 20.5384 359.396 20.8965C360.263 21.2546 360.929 21.7845 361.395 22.4863C361.86 23.1882 362.093 24.0511 362.093 25.0752C362.093 25.9131 361.95 26.6328 361.663 27.2344C361.384 27.8288 360.986 28.3265 360.471 28.7275C359.962 29.1214 359.364 29.4365 358.677 29.6729L357.656 30.21H352.586L352.564 27.6963H356.335C356.901 27.6963 357.37 27.596 357.742 27.3955C358.115 27.195 358.394 26.9157 358.58 26.5576C358.773 26.1995 358.87 25.7842 358.87 25.3115C358.87 24.8102 358.777 24.377 358.591 24.0117C358.405 23.6465 358.122 23.3672 357.742 23.1738C357.363 22.9805 356.886 22.8838 356.313 22.8838H353.703V36H350.48V20.3594ZM359.225 36L355.658 29.0283L359.063 29.0068L362.673 35.8496V36H359.225ZM368.001 20.3594V36H364.789V20.3594H368.001ZM377.69 20.3594V36H374.479V20.3594H377.69ZM382.503 20.3594V22.8838H369.741V20.3594H382.503ZM386.66 20.3594L389.926 27.4922L393.191 20.3594H396.704L391.559 30.3066V36H388.293V30.3066L383.137 20.3594H386.66ZM98.6191 46.3594V62H95.3965V46.3594H98.6191ZM104.85 53.041V55.5547H97.7383V53.041H104.85ZM105.602 46.3594V48.8838H97.7383V46.3594H105.602ZM120.318 53.8145V54.5557C120.318 55.7445 120.157 56.8115 119.835 57.7568C119.513 58.7021 119.058 59.5078 118.471 60.1738C117.883 60.8327 117.182 61.3376 116.365 61.6885C115.556 62.0394 114.657 62.2148 113.669 62.2148C112.688 62.2148 111.789 62.0394 110.973 61.6885C110.163 61.3376 109.462 60.8327 108.867 60.1738C108.273 59.5078 107.811 58.7021 107.481 57.7568C107.159 56.8115 106.998 55.7445 106.998 54.5557V53.8145C106.998 52.6185 107.159 51.5514 107.481 50.6133C107.804 49.668 108.258 48.8623 108.846 48.1963C109.44 47.5303 110.142 47.0218 110.951 46.6709C111.768 46.32 112.666 46.1445 113.647 46.1445C114.636 46.1445 115.535 46.32 116.344 46.6709C117.16 47.0218 117.862 47.5303 118.449 48.1963C119.044 48.8623 119.502 49.668 119.824 50.6133C120.154 51.5514 120.318 52.6185 120.318 53.8145ZM117.063 54.5557V53.793C117.063 52.9622 116.988 52.2318 116.838 51.6016C116.688 50.9714 116.465 50.4414 116.172 50.0117C115.878 49.582 115.52 49.2598 115.098 49.0449C114.675 48.8229 114.192 48.7119 113.647 48.7119C113.103 48.7119 112.62 48.8229 112.197 49.0449C111.782 49.2598 111.427 49.582 111.134 50.0117C110.847 50.4414 110.629 50.9714 110.479 51.6016C110.328 52.2318 110.253 52.9622 110.253 53.793V54.5557C110.253 55.3792 110.328 56.1097 110.479 56.7471C110.629 57.3773 110.851 57.9108 111.145 58.3477C111.438 58.7773 111.796 59.1032 112.219 59.3252C112.641 59.5472 113.125 59.6582 113.669 59.6582C114.213 59.6582 114.697 59.5472 115.119 59.3252C115.542 59.1032 115.896 58.7773 116.183 58.3477C116.469 57.9108 116.688 57.3773 116.838 56.7471C116.988 56.1097 117.063 55.3792 117.063 54.5557ZM131.275 46.3594H134.487V56.6934C134.487 57.8965 134.229 58.9098 133.714 59.7334C133.205 60.557 132.5 61.1764 131.598 61.5918C130.702 62.0072 129.671 62.2148 128.504 62.2148C127.337 62.2148 126.298 62.0072 125.389 61.5918C124.486 61.1764 123.777 60.557 123.262 59.7334C122.753 58.9098 122.499 57.8965 122.499 56.6934V46.3594H125.722V56.6934C125.722 57.3952 125.833 57.9681 126.055 58.4121C126.277 58.8561 126.595 59.182 127.011 59.3896C127.433 59.5973 127.931 59.7012 128.504 59.7012C129.091 59.7012 129.589 59.5973 129.997 59.3896C130.412 59.182 130.728 58.8561 130.942 58.4121C131.164 57.9681 131.275 57.3952 131.275 56.6934V46.3594ZM149.87 46.3594V62H146.647L140.363 51.5156V62H137.141V46.3594H140.363L146.658 56.8545V46.3594H149.87ZM157.476 62H154.07L154.092 59.4863H157.476C158.321 59.4863 159.033 59.2965 159.613 58.917C160.193 58.5303 160.63 57.9681 160.924 57.2305C161.225 56.4928 161.375 55.6012 161.375 54.5557V53.793C161.375 52.9909 161.289 52.2855 161.117 51.6768C160.952 51.068 160.705 50.556 160.376 50.1406C160.047 49.7253 159.642 49.4137 159.162 49.2061C158.682 48.9912 158.131 48.8838 157.508 48.8838H154.006V46.3594H157.508C158.553 46.3594 159.509 46.5384 160.376 46.8965C161.25 47.2474 162.005 47.7523 162.643 48.4111C163.28 49.07 163.771 49.8577 164.114 50.7744C164.465 51.6839 164.641 52.6973 164.641 53.8145V54.5557C164.641 55.6657 164.465 56.679 164.114 57.5957C163.771 58.5124 163.28 59.3001 162.643 59.959C162.012 60.6107 161.257 61.1156 160.376 61.4736C159.502 61.8245 158.535 62 157.476 62ZM155.896 46.3594V62H152.674V46.3594H155.896ZM173.105 49.0342L168.852 62H165.425L171.236 46.3594H173.417L173.105 49.0342ZM176.64 62L172.375 49.0342L172.031 46.3594H174.233L180.077 62H176.64ZM176.446 56.1777V58.7021H168.186V56.1777H176.446ZM187.188 46.3594V62H183.977V46.3594H187.188ZM192.001 46.3594V48.8838H179.239V46.3594H192.001ZM197.265 46.3594V62H194.053V46.3594H197.265ZM213.131 53.8145V54.5557C213.131 55.7445 212.97 56.8115 212.647 57.7568C212.325 58.7021 211.87 59.5078 211.283 60.1738C210.696 60.8327 209.994 61.3376 209.178 61.6885C208.368 62.0394 207.47 62.2148 206.481 62.2148C205.5 62.2148 204.602 62.0394 203.785 61.6885C202.976 61.3376 202.274 60.8327 201.68 60.1738C201.085 59.5078 200.623 58.7021 200.294 57.7568C199.972 56.8115 199.811 55.7445 199.811 54.5557V53.8145C199.811 52.6185 199.972 51.5514 200.294 50.6133C200.616 49.668 201.071 48.8623 201.658 48.1963C202.253 47.5303 202.954 47.0218 203.764 46.6709C204.58 46.32 205.479 46.1445 206.46 46.1445C207.448 46.1445 208.347 46.32 209.156 46.6709C209.973 47.0218 210.674 47.5303 211.262 48.1963C211.856 48.8623 212.314 49.668 212.637 50.6133C212.966 51.5514 213.131 52.6185 213.131 53.8145ZM209.876 54.5557V53.793C209.876 52.9622 209.801 52.2318 209.65 51.6016C209.5 50.9714 209.278 50.4414 208.984 50.0117C208.691 49.582 208.333 49.2598 207.91 49.0449C207.488 48.8229 207.004 48.7119 206.46 48.7119C205.916 48.7119 205.432 48.8229 205.01 49.0449C204.594 49.2598 204.24 49.582 203.946 50.0117C203.66 50.4414 203.441 50.9714 203.291 51.6016C203.141 52.2318 203.065 52.9622 203.065 53.793V54.5557C203.065 55.3792 203.141 56.1097 203.291 56.7471C203.441 57.3773 203.663 57.9108 203.957 58.3477C204.251 58.7773 204.609 59.1032 205.031 59.3252C205.454 59.5472 205.937 59.6582 206.481 59.6582C207.026 59.6582 207.509 59.5472 207.932 59.3252C208.354 59.1032 208.709 58.7773 208.995 58.3477C209.282 57.9108 209.5 57.3773 209.65 56.7471C209.801 56.1097 209.876 55.3792 209.876 54.5557ZM228.181 46.3594V62H224.958L218.674 51.5156V62H215.451V46.3594H218.674L224.969 56.8545V46.3594H228.181Z" fill="#2D4748"/>
</svg>
